<svg xmlns="http://www.w3.org/2000/svg" xmlns:xlink="http://www.w3.org/1999/xlink" aria-hidden="true" role="img" class="iconify iconify--logos" width="256" height="256" preserveAspectRatio="xMidYMid meet" viewBox="0 0 256 256"><path fill="#29AAE1" d="M128 256s128-23 128-128S128 0 128 0 0 23 0 128s128 128 128 128z"></path><g class="fade-in" style="animation-delay:0s"><path d="M128.001 32.83c-52.17 0-95.172 42.16-95.172 95.171c0 52.17 42.16 95.172 95.171 95.172c52.17 0 95.172-42.16 95.172-95.172c0-52.17-42.16-95.17-95.17-95.17z" fill="#fff"></path></g><g class="fade-in" style="animation-delay:.1s"><path d="M89.75 142.17c-2.73 0-5.46-2.73-5.46-5.46V93.33c0-2.73 2.73-5.46 5.46-5.46s5.46 2.73 5.46 5.46v43.38c0 2.73-2.73 5.46-5.46 5.46z" fill="#1F6BA3"></path></g><g class="fade-in" style="animation-delay:.2s"><path d="M121.92 142.17c-2.73 0-5.46-2.73-5.46-5.46v-16.38c0-2.73 2.73-5.46 5.46-5.46s5.46 2.73 5.46 5.46v16.38c0 2.73-2.73 5.46-5.46 5.46z" fill="#163E5E"></path></g><g class="fade-in" style="animation-delay:.3s"><path d="M154.08 142.17c-2.73 0-5.46-2.73-5.46-5.46v-21.84c0-2.73 2.73-5.46 5.46-5.46s5.46 2.73 5.46 5.46v21.84c.01 2.73-2.72 5.46-5.46 5.46z" fill="#1F6BA3"></path></g><g class="fade-in" style="animation-delay:.4s"><path d="M105.83 142.17c-2.73 0-5.46-2.73-5.46-5.46v-21.84c0-2.73 2.73-5.46 5.46-5.46s5.46 2.73 5.46 5.46v21.84c0 2.73-2.73 5.46-5.46 5.46z" fill="#29AAE1"></path></g><g class="fade-in" style="animation-delay:.5s"><path d="M138 142.17c-2.73 0-5.46-2.73-5.46-5.46V98.79c0-2.73 2.73-5.46 5.46-5.46s5.46 2.73 5.46 5.46v37.92c0 2.73-2.73 5.46-5.46 5.46z" fill="#163E5E"></path></g><g class="fade-in" style="animation-delay:.6s"><path d="M167.33 114.33a5.463 5.463 0 0 1-5.46-5.46V93.33c0-2.73 2.73-5.46 5.46-5.46s5.46 2.73 5.46 5.46v15.54a5.463 5.463 0 0 1-5.46 5.46z" fill="#29AAE1"></path></g><g class="fade-in" style="animation-delay:.7s"><path d="M73.67 114.33a5.463 5.463 0 0 1-5.46-5.46v-5.46c0-2.73 2.73-5.46 5.46-5.46s5.46 2.73 5.46 5.46v5.46a5.463 5.463 0 0 1-5.46 5.46z" fill="#29AAE1"></path></g></svg>
